<svg xmlns="http://www.w3.org/2000/svg" xmlns:xlink="http://www.w3.org/1999/xlink" viewBox="0 0 121.18 163.59"><defs><clipPath id="clip-path"><path d="M121.18,98.62c0,33.47-21.67,65-60.59,65S0,132.09,0,98.62,19.31,0,60.59,0,121.18,65.16,121.18,98.62Z" style="fill:#242228"/></clipPath></defs><g style="isolation:isolate"><g id="Capa_2" data-name="Capa 2"><g id="Capa_1-2" data-name="Capa 1"><path d="M121.18,98.62c0,33.47-21.67,65-60.59,65S0,132.09,0,98.62,19.31,0,60.59,0,121.18,65.16,121.18,98.62Z" style="fill:#242228"/><g style="clip-path:url(#clip-path)"><path d="M121.18,98.62c0,33.47-21.67,65-60.59,65S0,132.09,0,98.62,19.31,0,60.59,0,121.18,65.16,121.18,98.62Z" style="fill:#242228"/><path d="M116.14,97.23c0,30.68-19.86,59.56-55.55,59.56S5,127.91,5,97.23,22.74,6.8,60.59,6.8,116.14,66.54,116.14,97.23Z" style="fill:#242228"/><g style="opacity:0.600000023841858;mix-blend-mode:screen"><path d="M90.7,22.1a45.33,45.33,0,0,0-8.12-2.27C43.67,12.66,14.64,57.39,5.47,88.27,8.39,56.24,26.15,6.8,60.59,6.8,72.64,6.8,82.65,12.85,90.7,22.1Z" style="fill:#242228"/></g><circle cx="46.62" cy="124.26" r="6.08" style="fill:#242228"/><circle cx="89.85" cy="26.01" r="6.08" style="fill:#242228"/><circle cx="79.89" cy="37.93" r="3.91" style="fill:#242228"/><circle cx="37.13" cy="146.5" r="9.82" style="fill:#242228"/><circle cx="71.02" cy="137.6" r="11.69" style="fill:#242228"/><g style="mix-blend-mode:multiply"><path d="M116.14,97.23c0,30.68-19.86,59.56-55.55,59.56-26,0-43.56-15.29-51.22-35.44,7,8.38,16.92,14.79,29.85,17.87,35.25,8.38,61.65-15.48,68.86-45.78a130.82,130.82,0,0,0,3-29.91A132.86,132.86,0,0,1,116.14,97.23Z" style="fill:#242228"/></g></g><path d="M52.75,91.49a8.26,8.26,0,0,1-2.93-3,9.25,9.25,0,0,1-1.37-5.08A5.55,5.55,0,0,1,50,79.18,9.86,9.86,0,0,1,54.4,77l7.14-1.74c3.05-.79,4.57-2.26,4.57-4.39a3.71,3.71,0,0,0-1.69-3c-1.13-.86-3.07-1.28-5.81-1.28a25.13,25.13,0,0,0-7,1,20.55,20.55,0,0,0-5.31,2.24,11.22,11.22,0,0,1-2.65-2.88,7.36,7.36,0,0,1-1.1-4.08,6.67,6.67,0,0,1,1.37-4.16,10.22,10.22,0,0,1,3.8-2.93,21.73,21.73,0,0,1,5.77-1.69,45,45,0,0,1,7.36-.55q10.8,0,16.34,4.8A15.88,15.88,0,0,1,82.68,70.9q0,14.64-20.69,18.76Zm-3,12a8.19,8.19,0,0,1,8.79-8.61,8.62,8.62,0,1,1,0,17.21,8.18,8.18,0,0,1-8.79-8.6Z" style="fill:#fff"/></g></g></g></svg>