<svg xmlns="http://www.w3.org/2000/svg" viewBox="0 0 40.17 58.57"><g id="Capa_2" data-name="Capa 2"><g id="Capa_1-2" data-name="Capa 1"><path d="M10.25,38a8.26,8.26,0,0,1-2.93-3A9.25,9.25,0,0,1,6,29.92a5.57,5.57,0,0,1,1.51-4.25,9.81,9.81,0,0,1,4.44-2.15L19,21.78c3-.79,4.57-2.26,4.57-4.39a3.71,3.71,0,0,0-1.69-3c-1.13-.86-3.07-1.28-5.81-1.28a25.08,25.08,0,0,0-7,1,20.9,20.9,0,0,0-5.31,2.24A11.22,11.22,0,0,1,1.1,13.41,7.36,7.36,0,0,1,0,9.33,6.67,6.67,0,0,1,1.37,5.17a10.22,10.22,0,0,1,3.8-2.93A22.1,22.1,0,0,1,10.94.55,45,45,0,0,1,18.3,0Q29.1,0,34.64,4.8a15.88,15.88,0,0,1,5.53,12.59q0,14.64-20.68,18.76Zm-3,12a8.58,8.58,0,0,1,2.33-6.18A8.54,8.54,0,0,1,16,41.36a8.53,8.53,0,0,1,6.45,2.43A8.58,8.58,0,0,1,24.8,50a8.54,8.54,0,0,1-2.33,6.17A8.53,8.53,0,0,1,16,58.57a8.54,8.54,0,0,1-6.46-2.43A8.54,8.54,0,0,1,7.23,50Z" style="fill:#fff"/></g></g></svg>