<svg xmlns="http://www.w3.org/2000/svg" xmlns:xlink="http://www.w3.org/1999/xlink" viewBox="0 0 121.18 163.59"><defs><clipPath id="clip-path"><path d="M121.18,98.62c0,33.47-21.67,65-60.59,65S0,132.09,0,98.62,19.31,0,60.59,0,121.18,65.16,121.18,98.62Z" style="fill:none"/></clipPath></defs><g style="isolation:isolate"><g id="Capa_2" data-name="Capa 2"><g id="Capa_1-2" data-name="Capa 1"><g style="clip-path:url(#clip-path)"><path d="M121.18,98.62c0,33.47-21.67,65-60.59,65S0,132.09,0,98.62,19.31,0,60.59,0,121.18,65.16,121.18,98.62Z" style="fill:#0098f1"/><path d="M116.14,97.23c0,30.68-19.86,59.56-55.55,59.56S5,127.91,5,97.23,22.74,6.8,60.59,6.8,116.14,66.54,116.14,97.23Z" style="fill:#d8f7ff"/><g style="opacity:0.6000000238418579;mix-blend-mode:screen"><path d="M90.7,22.1a45.33,45.33,0,0,0-8.12-2.27C43.67,12.66,14.64,57.39,5.47,88.27,8.39,56.24,26.15,6.8,60.59,6.8,72.64,6.8,82.65,12.85,90.7,22.1Z" style="fill:#d8f7ff"/></g><circle cx="46.62" cy="124.26" r="6.08" style="fill:#0098f1"/><circle cx="89.85" cy="26.01" r="6.08" style="fill:#0098f1"/><circle cx="79.89" cy="37.93" r="3.91" style="fill:#0098f1"/><circle cx="37.13" cy="146.5" r="9.82" style="fill:#0098f1"/><circle cx="71.02" cy="137.6" r="11.69" style="fill:#0098f1"/><g style="mix-blend-mode:multiply"><path d="M116.14,97.23c0,30.68-19.86,59.56-55.55,59.56-26,0-43.56-15.29-51.22-35.44,7,8.38,16.92,14.79,29.85,17.87,35.25,8.38,61.65-15.48,68.86-45.78a130.82,130.82,0,0,0,3-29.91A132.86,132.86,0,0,1,116.14,97.23Z" style="fill:#d8f7ff"/></g><path d="M116.14,97.23c0,30.68-19.86,59.56-55.55,59.56V6.8C98.44,6.8,116.14,66.55,116.14,97.23Z" style="fill:#d8f7ff;mix-blend-mode:multiply"/></g></g></g></g></svg>