<?xml version="1.0" standalone="no"?>
<!DOCTYPE svg PUBLIC "-//W3C//DTD SVG 20010904//EN"
 "http://www.w3.org/TR/2001/REC-SVG-20010904/DTD/svg10.dtd">
<svg version="1.0" xmlns="http://www.w3.org/2000/svg"
 width="1312.000000pt" height="1312.000000pt" viewBox="0 0 1312.000000 1312.000000"
 preserveAspectRatio="xMidYMid meet">
<metadata>
Created by potrace 1.14, written by Peter Selinger 2001-2017
</metadata>
<g transform="translate(0.000000,1312.000000) scale(0.100000,-0.100000)"
fill="#000000" stroke="none">
<path d="M6388 13115 c-2 -1 -43 -6 -93 -10 -125 -10 -146 -12 -180 -19 -16
-3 -45 -8 -62 -11 -55 -9 -87 -15 -113 -20 -14 -3 -36 -8 -50 -10 -14 -3 -59
-14 -100 -26 -41 -11 -82 -22 -90 -24 -24 -5 -223 -74 -245 -84 -11 -6 -60
-27 -110 -47 -149 -62 -353 -173 -510 -277 -80 -53 -262 -183 -275 -197 -3 -3
-45 -39 -95 -80 -170 -142 -386 -355 -556 -550 -44 -51 -260 -322 -277 -348
-9 -15 -22 -34 -29 -42 -47 -59 -82 -110 -76 -110 4 0 -5 -12 -19 -27 -23 -26
-129 -185 -173 -260 -11 -18 -24 -33 -29 -33 -5 0 -6 -3 -3 -7 4 -3 1 -13 -6
-22 -8 -9 -40 -61 -72 -116 -32 -55 -70 -120 -85 -145 -14 -25 -29 -52 -33
-60 -4 -8 -33 -62 -63 -120 -93 -172 -114 -214 -114 -227 0 -6 -3 -13 -7 -15
-9 -4 -63 -112 -63 -126 0 -5 -7 -15 -15 -22 -8 -6 -14 -15 -13 -18 2 -9 -8
-31 -66 -155 -25 -53 -46 -99 -46 -102 -1 -5 -42 -101 -60 -140 -30 -66 -70
-169 -70 -181 0 -8 -4 -14 -10 -14 -5 0 -10 -7 -10 -16 0 -8 -9 -36 -21 -61
-11 -25 -22 -53 -24 -62 -7 -30 -30 -86 -38 -92 -5 -3 -8 -9 -7 -13 2 -6 -39
-131 -60 -181 -14 -35 -40 -105 -41 -113 -1 -4 -6 -18 -11 -32 -6 -14 -11 -32
-13 -40 -2 -8 -4 -16 -5 -17 -2 -2 -3 -6 -4 -10 -1 -5 -11 -37 -23 -73 -34
-101 -123 -386 -128 -406 -4 -16 -54 -198 -70 -254 -13 -48 -116 -454 -120
-477 -2 -16 -9 -42 -14 -60 -5 -17 -7 -34 -4 -37 3 -2 1 -11 -3 -18 -9 -14
-14 -32 -17 -63 -2 -11 -6 -26 -10 -32 -5 -7 -6 -13 -3 -13 2 0 1 -14 -4 -32
-5 -17 -12 -50 -15 -72 -3 -23 -8 -49 -11 -58 -6 -19 -10 -39 -25 -123 -6 -33
-19 -103 -29 -155 -10 -52 -22 -120 -26 -150 -3 -30 -9 -66 -11 -80 -3 -14 -6
-38 -8 -55 -2 -16 -4 -30 -5 -30 -2 0 -9 -37 -14 -85 -11 -96 -17 -135 -21
-160 -3 -14 -8 -50 -11 -80 -3 -30 -7 -68 -9 -85 -8 -64 -14 -122 -19 -180 -3
-33 -7 -87 -11 -120 -36 -375 -41 -957 -10 -1260 15 -140 17 -158 32 -280 2
-22 5 -55 6 -72 1 -18 5 -33 8 -33 4 0 7 -10 7 -22 0 -29 9 -95 17 -128 3 -14
8 -38 11 -55 3 -16 14 -70 24 -120 10 -49 21 -101 24 -115 8 -39 52 -209 70
-271 9 -31 19 -65 21 -75 2 -11 11 -38 19 -61 9 -22 17 -53 20 -67 3 -14 8
-31 13 -38 4 -7 8 -17 9 -23 5 -24 74 -216 104 -285 17 -41 33 -82 35 -90 2
-8 4 -17 5 -20 1 -3 2 -8 1 -12 0 -5 3 -8 7 -8 4 0 14 -17 21 -38 20 -57 192
-407 202 -410 5 -2 9 -9 9 -15 0 -7 22 -49 49 -94 26 -45 51 -87 55 -95 12
-24 31 -53 53 -85 13 -17 23 -34 23 -38 0 -4 14 -24 30 -45 17 -21 30 -43 30
-49 0 -6 4 -11 9 -11 5 0 12 -8 16 -19 3 -10 13 -28 23 -39 45 -53 51 -62 47
-62 -6 0 8 -18 43 -55 13 -14 20 -25 17 -25 -9 0 167 -214 270 -329 51 -56
288 -294 321 -322 29 -23 116 -98 144 -123 130 -114 457 -342 605 -422 11 -6
45 -25 75 -43 148 -85 590 -285 651 -294 8 -2 19 -5 24 -8 9 -6 106 -39 130
-46 21 -5 222 -63 250 -73 17 -5 41 -11 55 -14 14 -3 35 -7 48 -10 21 -6 32
-8 92 -21 14 -3 36 -8 50 -11 58 -12 86 -17 108 -18 12 0 22 -3 22 -6 0 -3 10
-6 23 -7 12 0 34 -3 48 -6 15 -3 53 -8 85 -12 33 -4 62 -9 67 -12 4 -2 40 -6
80 -9 39 -2 88 -6 107 -9 201 -27 827 -28 1045 0 17 2 57 6 90 9 33 3 71 8 85
10 14 3 48 8 75 11 81 11 88 13 130 19 71 11 220 42 220 46 0 1 11 3 25 4 40
4 265 65 385 104 61 20 115 37 120 38 11 2 189 69 220 83 11 5 49 21 85 36
106 45 289 134 382 187 48 27 90 49 93 48 3 0 11 4 18 10 18 15 87 60 93 60
10 0 220 143 232 158 6 9 12 12 12 8 0 -4 13 3 28 16 16 12 41 32 56 43 26 18
185 146 213 170 6 5 39 35 73 65 87 76 282 272 360 359 36 40 70 78 75 85 6 6
39 47 74 91 36 44 71 86 80 92 8 7 11 13 5 13 -5 0 -4 4 1 8 16 11 105 131
105 141 0 5 3 11 8 13 4 1 34 44 67 93 33 50 65 93 70 97 7 5 7 8 0 8 -6 0 -6
3 0 8 6 4 21 25 34 47 13 22 52 88 87 147 34 58 60 109 57 112 -4 3 -2 6 3 6
6 0 16 16 24 35 8 19 17 35 22 35 4 0 7 3 6 8 -1 4 22 54 50 111 29 57 52 110
52 118 0 7 5 13 10 13 6 0 9 3 8 8 -1 4 4 18 12 32 7 14 12 25 10 25 -1 0 9
26 24 58 14 32 26 64 26 72 0 8 5 15 12 15 6 0 9 3 5 6 -3 3 5 30 18 60 13 30
25 58 26 62 2 11 6 20 40 112 17 47 32 94 34 105 1 11 4 21 5 23 1 1 3 5 5 10
1 4 5 21 10 37 4 17 11 35 16 40 4 6 8 15 8 20 1 6 6 28 12 50 6 22 13 47 15
55 2 8 19 74 39 147 19 72 36 145 38 160 2 16 7 34 11 41 4 7 5 16 1 21 -3 5
-1 12 3 15 5 3 10 18 10 33 2 27 9 68 12 68 2 0 9 34 15 80 7 49 13 80 15 80
1 0 3 16 5 35 5 44 12 95 19 140 6 44 14 107 22 190 3 36 7 76 10 90 10 66 19
331 18 565 0 332 -9 495 -49 905 -4 36 -12 107 -21 175 -2 22 -7 60 -10 85 -3
25 -7 56 -10 70 -2 14 -6 50 -9 80 -3 30 -9 62 -12 70 -3 8 -7 40 -10 70 -2
30 -8 59 -13 65 -6 7 -8 14 -5 17 5 4 -16 137 -35 228 -5 25 -12 59 -14 75 -3
17 -7 40 -10 51 -2 12 -7 37 -10 55 -3 19 -15 77 -26 129 -12 52 -23 107 -25
122 -2 15 -8 44 -14 65 -6 21 -12 49 -15 63 -3 14 -8 36 -11 50 -3 14 -8 36
-11 49 -3 13 -16 67 -29 120 -14 53 -26 105 -28 116 -2 11 -7 27 -10 35 -6 15
-47 175 -51 197 -1 7 -5 15 -8 19 -4 3 -4 12 -1 20 3 8 0 14 -7 14 -6 0 -8 5
-5 10 3 6 3 16 -2 23 -4 6 -8 17 -10 22 -1 6 -4 20 -7 33 -3 12 -8 30 -10 40
-2 9 -10 31 -16 47 -6 17 -14 39 -16 50 -5 25 -56 191 -96 310 -16 50 -31 97
-33 105 -9 36 -90 265 -95 270 -5 4 -17 39 -35 100 -1 3 -7 19 -14 35 -7 17
-21 53 -31 80 -10 28 -24 64 -31 80 -7 17 -13 32 -14 35 -6 16 -22 56 -59 145
-22 55 -40 103 -39 107 2 5 -2 8 -7 8 -5 0 -9 3 -8 8 1 4 -5 24 -15 45 -9 20
-23 52 -31 70 -23 54 -62 138 -102 222 -21 44 -39 82 -39 85 -4 14 -96 194
-106 206 -6 8 -9 14 -6 14 3 0 -14 36 -39 80 -24 44 -44 85 -44 90 0 6 -5 10
-11 10 -5 0 -7 5 -4 10 3 6 3 10 -2 10 -4 0 -19 25 -33 55 -14 30 -28 55 -32
55 -5 0 -8 5 -8 10 0 6 -22 47 -50 91 -27 44 -50 82 -50 84 0 24 -370 573
-392 583 -5 2 -8 8 -8 13 0 5 -8 18 -17 30 -10 11 -28 33 -40 47 -13 15 -23
30 -23 34 0 4 -8 14 -17 24 -10 9 -38 43 -63 74 -63 79 -137 164 -192 223 -27
27 -48 51 -48 53 0 16 -379 370 -486 454 -125 98 -155 120 -163 120 -5 0 -11
4 -13 8 -4 11 -185 133 -194 132 -4 -1 -10 4 -15 12 -5 7 -12 13 -16 13 -4 0
-37 18 -73 39 -104 62 -268 145 -274 139 -3 -4 -6 -1 -6 5 0 7 -3 11 -7 10 -8
-1 -26 6 -108 42 -65 29 -280 104 -326 114 -13 3 -48 12 -76 20 -29 8 -53 12
-53 9 0 -3 -7 0 -15 7 -8 7 -15 10 -15 7 0 -3 -28 1 -62 9 -35 8 -78 17 -98
20 -19 3 -46 7 -60 9 -14 3 -50 7 -80 11 -30 3 -71 8 -90 10 -39 6 -447 14
-452 9z"/>
</g>
</svg>
